<svg xmlns="http://www.w3.org/2000/svg" width="432.215" height="182.5" viewBox="0 0 432.215 182.5"><g transform="translate(0.5 0.5)"><path d="M155.892,119.745H0v51.177H5.905v13.385L19.29,170.922h136.6Z" transform="translate(0 -59.906)" fill="none" stroke="#d9d9d9" stroke-width="1"/><rect width="147.231" height="40.941" transform="translate(4.33 64.823)" fill="#e1dfef" opacity="0.996"/><rect width="70.888" height="2.151" transform="translate(17.351 77.169)" fill="#f0f0f0"/><rect width="123.552" height="2.151" transform="translate(17.351 84.611)" fill="#f0f0f0"/><rect width="123.431" height="2.151" transform="translate(17.351 92.053)" fill="#f0f0f0"/><path d="M692.073,605.044s.743-15.571,15.977-13.761" transform="translate(-430.205 -429.608)" fill="#cae0b3"/><circle cx="7.624" cy="7.624" r="7.624" transform="translate(249.939 145.37)" fill="#cae0b3"/><rect width="2.152" height="15.065" transform="translate(256.323 165.833)" fill="#d0cdad"/><circle cx="61.614" cy="61.614" r="61.614" transform="translate(271.663 28.372)" fill="#3f3d56"/><path d="M751.733,426.6a16.3,16.3,0,0,1,25.026,0,18.122,18.122,0,1,0-25.621-.595Q751.429,426.313,751.733,426.6Z" transform="translate(-457.246 -331.672)" fill="#fff"/><path d="M849.645,426.6a16.3,16.3,0,0,1,25.026,0,18.122,18.122,0,1,0-25.621-.595Q849.341,426.313,849.645,426.6Z" transform="translate(-506.23 -331.672)" fill="#fff"/><circle cx="6.234" cy="6.234" r="6.234" transform="translate(294.585 69.42)" fill="#3f3d56"/><circle cx="6.234" cy="6.234" r="6.234" transform="translate(343.512 69.42)" fill="#3f3d56"/><circle cx="7.249" cy="7.249" r="7.249" transform="translate(281.63 98.141)" fill="#7671cb"/><circle cx="7.249" cy="7.249" r="7.249" transform="translate(364.99 98.141)" fill="#7671cb"/><path d="M656.047,181.886l-5.436,23.558,9.06-9.06Z" transform="translate(-325.489 -90.994)" fill="#7671cb"/><path d="M697.447,326.894l-6.172-5.18.144,5.18H689.5l-.153-5.477-8.333,5.477h-3.489l11.76-7.73-.456-16.23-.34-12.258,1.912-.052.345,12.311.455,16.216,9.225,7.744Z" transform="translate(-338.954 -145.393)" fill="#3f3d56"/><path d="M639.425,326.894l-6.172-5.18.144,5.18h-1.912l-.153-5.477L623,326.894h-3.489l11.755-7.73-.455-16.23-.34-12.258,1.917-.052.345,12.311.45,16.216,9.225,7.744Z" transform="translate(-309.929 -145.393)" fill="#3f3d56"/><path d="M816.828,308.351c-1.691,0-3.182,1.313-4.179,3.33-.879-3.033-2.725-5.142-4.882-5.142a3.277,3.277,0,0,0-.435.073c-.829-3.238-2.755-5.51-5-5.51-3,0-5.436,4.057-5.436,9.061s2.434,9.061,5.436,9.061a3.276,3.276,0,0,0,.435-.073c.829,3.238,2.755,5.51,5,5.51,1.691,0,3.182-1.313,4.179-3.33.879,3.033,2.725,5.142,4.882,5.142,3,0,5.436-4.057,5.436-9.061S819.83,308.351,816.828,308.351Z" transform="translate(-482.645 -284.509)" fill="#3f3d56"/><path d="M672.011,445.889l-33.941-5.505a17.337,17.337,0,0,0-5.168-.314,5.857,5.857,0,0,0-4.308,2.582,4.323,4.323,0,0,0,4.572,6.423,10.929,10.929,0,0,0-5.444.756c-1.644.856-2.808,2.936-2.007,4.608a4.136,4.136,0,0,0,.959,1.214,8.8,8.8,0,0,0,9.256,1.57c-1.25,1.792-3.729,2.058-5.874,2.473s-4.624,1.628-4.7,3.811c-.09,2.453,2.83,3.757,5.233,4.256a68.67,68.67,0,0,0,38.389-3.129,15.48,15.48,0,0,0,3.866-1.974,8.711,8.711,0,0,0-3.525-15.473" transform="translate(-396.825 -353.986)" fill="#3f3d56"/><path d="M969.464,476.407a68.671,68.671,0,0,0-25.572-28.8,15.479,15.479,0,0,0-3.9-1.9,8.712,8.712,0,0,0-10.249,12.116l-2.656-1.374,16,30.436a17.335,17.335,0,0,0,2.855,4.319,5.857,5.857,0,0,0,4.653,1.892,4.3,4.3,0,0,0,3.388-6.146,8.317,8.317,0,0,0,2.874,2.528c1.672.8,4.034.48,4.888-1.165a4.136,4.136,0,0,0,.394-1.5,8.8,8.8,0,0,0-4.308-8.342c2.183-.078,3.886,1.744,5.506,3.208s4.08,2.717,5.873,1.469C971.222,481.745,970.509,478.628,969.464,476.407Z" transform="translate(-547.778 -356.683)" fill="#3f3d56"/><path d="M55.757,0H280.752V73.862h-8.523V93.179L252.912,73.862H55.757Z" transform="translate(-27.894)" fill="#f8fafc" stroke="#d6d6d6" stroke-width="1"/><rect width="212.495" height="59.089" transform="translate(34.113 7.193)" fill="#eceafa" opacity="0.996"/><rect width="102.311" height="3.105" transform="translate(51.201 24.444)" fill="#b5c3f2"/><rect width="178.319" height="3.105" transform="translate(51.201 35.185)" fill="#b5c3f2"/><rect width="178.145" height="3.105" transform="translate(51.201 45.926)" fill="#b5c3f2"/><path d="M839.851,631.1H649.458a.5.5,0,1,1,0-1H839.851a.5.5,0,0,1,0,1Z" transform="translate(-408.636 -449.102)" fill="#cacaca"/></g></svg>