<svg xmlns="http://www.w3.org/2000/svg" width="690" height="448.76" viewBox="0 0 690 448.76"><g transform="translate(9 -500.62)"><g transform="translate(-9 500.62)"><path d="M466.813,645.731c4.668-10.084,9.333-20.317,11.359-31.242s1.176-22.783-4.627-32.259-17.228-15.9-28.132-13.76c-8.955,1.759-16.146,8.813-20.357,16.91s-5.9,17.23-7.537,26.209c-.529-10.2-1.09-20.564-4.478-30.2s-10.06-18.615-19.569-22.343-21.879-.8-26.891,8.1c-7.061,12.538,2.3,30.125-5.817,42.006-1.393-11.917-13.855-21.332-25.7-19.416s-20.7,14.781-18.265,26.529c1.45,6.99,6.219,12.936,11.922,17.232s12.334,9.274,18.895,12.09Z" transform="translate(-255 -225.62)" fill="#b8d5bc"/><path d="M323.02,598.158c9.408,3.289,18.9,6.614,27.492,11.756,7.7,4.608,14.553,10.812,18.882,18.757a33.356,33.356,0,0,1,4.126,13.859c.062,1.018,1.655,1.025,1.592,0-.557-9.061-4.972-17.353-11.087-23.911-6.7-7.19-15.392-12.1-24.361-15.91-5.318-2.259-10.769-4.179-16.221-6.085-.969-.339-1.385,1.2-.423,1.535Z" transform="translate(-255 -225.62)" fill="#a4c6a8"/><path d="M377.287,560.625a143.38,143.38,0,0,1,13.791,30.616,145.12,145.12,0,0,1,6.361,32.968,143.3,143.3,0,0,1,.152,18.837c-.059,1.023,1.533,1.02,1.592,0a145.2,145.2,0,0,0-2.04-33.82,146.927,146.927,0,0,0-9.769-32.44,143.258,143.258,0,0,0-8.712-16.964.8.8,0,0,0-1.374.8Z" transform="translate(-255 -225.62)" fill="#a4c6a8"/><path d="M455.188,569.767a232.043,232.043,0,0,0-17.117,57.578q-1.342,8.365-2.078,16.812c-.089,1.02,1.5,1.014,1.592,0a231.211,231.211,0,0,1,12.738-58.025q2.834-7.892,6.239-15.562C456.974,569.643,455.6,568.832,455.188,569.767Z" transform="translate(-255 -225.62)" fill="#a4c6a8"/><rect width="9.882" height="46.588" transform="matrix(0.013, 1, -1, 0.013, 482.345, 431.914)" fill="#e6e6e6"/><path d="M754.027,669.616l-6.653-.019-4.112-7.337,4.445-7.312,6.181.018a12,12,0,1,0,.139,14.651Z" transform="translate(-255 -225.62)" fill="#e6e6e6"/><path d="M674.208,669.616l6.653-.019,4.112-7.337-4.445-7.312-6.181.018a12,12,0,1,1-.139,14.651Z" transform="translate(-255 -225.62)" fill="#e6e6e6"/><path d="M944,646.59H256a1,1,0,0,1,0-2H944a1,1,0,0,1,0,2Z" transform="translate(-255 -225.62)" fill="#d8d8d8"/><circle cx="33" cy="33" r="33" transform="translate(507.486 164.969)" fill="#2f2e41"/><path d="M553.859,383.226l2.542,11.993,47.47-4.1-3.751-17.7Z" fill="#ffb8b8"/><path d="M789.188,618.5h38.531v14.887H804.075A14.887,14.887,0,0,1,789.188,618.5Z" transform="translate(108.711 1320.973) rotate(-101.965)" fill="#2f2e41"/><path d="M524.12,382.586l-5.343,11.035-45.1-15.357,7.886-16.285Z" fill="#ffb8b8"/><path d="M771.037,617.456h23.644v14.887H756.151A14.887,14.887,0,0,1,771.037,617.456Z" transform="translate(-379.941 824.868) rotate(-64.164)" fill="#2f2e41"/><path d="M690.259,586.414a10.743,10.743,0,0,0,12.709-10.48l74.374-68.571-18.47-14.305L691.535,565a10.8,10.8,0,0,0-1.275,21.413Z" transform="translate(-255 -225.62)" fill="#ffb8b8"/><circle cx="24.561" cy="24.561" r="24.561" transform="translate(511.783 183.337)" fill="#ffb8b8"/><path d="M813.386,577.893c-17.229,0-37.978-3.628-50.779-18.477l-.288-.334.3-.328c.1-.107,9.514-10.869.111-30.061L749.8,532.67l-12.87-16.989,7.13-21.389,29.177-23.5A26.751,26.751,0,0,1,787.846,465a80.211,80.211,0,0,0,27.785-7.913,27.906,27.906,0,0,1,12.8-2.8l.574.016a9.95,9.95,0,0,1,9.641,10.708c-1.979,25.63-5.472,87.543,4.792,108.861l.265.551-.592.15a136.109,136.109,0,0,1-29.723,3.319Z" transform="translate(-255 -225.62)" fill="#5175ef"/><path d="M765.986,559.09s-65-6-72,13,1,28,13,32,41,9,41,9l13-16,34,2s37.885,21.973,48.36,45.474A30.762,30.762,0,0,0,869.123,662.8c8.4.584,15.863-2.587,15.863-15.712,0-30-42-73-42-73Z" transform="translate(-255 -225.62)" fill="#2f2e41"/><path d="M716.486,588.59s17-5,44,8" transform="translate(-255 -225.62)" fill="#2f2e41"/><path d="M766.843,417.855a73.042,73.042,0,0,0,31.6,10.412l-3.331-3.991a24.476,24.476,0,0,0,7.561,1.5,8.281,8.281,0,0,0,6.75-3.159,7.7,7.7,0,0,0,.516-7.115,14.589,14.589,0,0,0-4.589-5.739,27.323,27.323,0,0,0-25.431-4.545,16.33,16.33,0,0,0-7.6,4.872,9.236,9.236,0,0,0-1.863,8.561" transform="translate(-255 -225.62)" fill="#2f2e41"/><path d="M795.309,398.224A75.485,75.485,0,0,1,814.446,371.7c5.292-4.7,11.473-8.743,18.446-9.963s14.833.87,19.111,6.511c3.5,4.613,4.152,10.793,3.767,16.569s-1.676,11.5-1.553,17.284a35.468,35.468,0,0,0,50.527,31.351c-6.022,3.329-10.714,8.6-16.3,12.608s-12.963,6.76-19.312,4.11c-6.718-2.8-9.8-10.419-12.206-17.29l-10.732-30.64c-1.824-5.209-3.739-10.572-7.462-14.645s-9.765-6.557-14.889-4.509c-3.884,1.552-6.413,5.258-8.63,8.8s-4.557,7.32-8.3,9.179-9.3.715-10.523-3.285" transform="translate(-255 -225.62)" fill="#2f2e41"/><rect width="9.882" height="46.588" transform="matrix(0.698, -0.716, 0.716, 0.698, 532.731, 328.267)" fill="#e6e6e6"/><path d="M821.51,579.909a9.882,9.882,0,1,0,13.975-.181A9.882,9.882,0,0,0,821.51,579.909Zm10.111,9.853a4.235,4.235,0,1,1-.078-5.989,4.235,4.235,0,0,1,.078,5.989Z" transform="translate(-255 -225.62)" fill="#e6e6e6"/><path d="M784.48,533.549l4.69,4.718-2.28,8.1-8.314,2.028-4.358-4.383a12,12,0,1,0,10.262-10.458Z" transform="translate(-255 -225.62)" fill="#e6e6e6"/><path d="M803.736,577.979a11.57,11.57,0,0,1-1.268-.07,11,11,0,0,1,1.251-21.931,10.626,10.626,0,0,1,1.466.109l33.578-35.745-3.505-11.685,17.6-7.892,4.934,12.06A20.49,20.49,0,0,1,851.62,536.5l-36.961,29.4a10.238,10.238,0,0,1,.06,1.079,11.018,11.018,0,0,1-3.664,8.2A10.872,10.872,0,0,1,803.736,577.979Z" transform="translate(-255 -225.62)" fill="#ffb8b8"/><path d="M829.986,459.09h0a9.453,9.453,0,0,1,12.628,5.156l17.372,43.844-27,18Z" transform="translate(-255 -225.62)" fill="#5175ef"/><path d="M703.486,469.327V250.883a25.3,25.3,0,0,0-25.262-25.262H334.954a25.3,25.3,0,0,0-25.262,25.262V469.327a25.3,25.3,0,0,0,25.262,25.262h343.27a25.3,25.3,0,0,0,25.262-25.262Zm-368.532,22.29a22.317,22.317,0,0,1-22.29-22.29V250.883a22.317,22.317,0,0,1,22.29-22.29h343.27a22.317,22.317,0,0,1,22.29,22.29V469.327a22.317,22.317,0,0,1-22.29,22.29Z" transform="translate(-255 -225.62)" fill="#e8e8e8"/><path d="M700.514,264.924H312.664a1.486,1.486,0,0,1,0-2.972H700.514a1.486,1.486,0,1,1,0,2.972Z" transform="translate(-255 -225.62)" fill="#e8e8e8"/><circle cx="7.43" cy="7.43" r="7.43" transform="translate(75.496 13.374)" fill="#eb7e74"/><circle cx="7.43" cy="7.43" r="7.43" transform="translate(100.758 13.374)" fill="#f4ce7e"/><circle cx="7.43" cy="7.43" r="7.43" transform="translate(126.02 13.374)" fill="#86d87b"/><path d="M500.032,331.65H489.724a6.013,6.013,0,0,1,0-12.027h10.309a6.013,6.013,0,0,1,0,12.027Z" transform="translate(-228.065 -218.945)" fill="#ddd"/><path d="M582.032,361.15H571.724a6.013,6.013,0,1,1,0-12.027h10.309a6.013,6.013,0,0,1,0,12.027Z" transform="translate(-239.623 -223.103)" fill="#ededed"/><path d="M620.032,361.15H609.724a6.013,6.013,0,1,1,0-12.027h10.309a6.013,6.013,0,1,1,0,12.027Z" transform="translate(-244.979 -223.103)" fill="#ddd"/><path d="M658.032,361.15H647.724a6.013,6.013,0,0,1,0-12.027h10.309a6.013,6.013,0,0,1,0,12.027Z" transform="translate(-250.335 -223.103)" fill="#ededed"/><path d="M576.831,332.15H528.724a6.013,6.013,0,0,1,0-12.027h48.107a6.013,6.013,0,1,1,0,12.027Z" transform="translate(-233.562 -219.016)" fill="#ededed"/><path d="M537.831,360.15H489.724a6.013,6.013,0,0,1,0-12.027h48.107a6.013,6.013,0,0,1,0,12.027Z" transform="translate(-228.065 -222.962)" fill="#ddd"/><path d="M649.663,332.15H612.724a6.013,6.013,0,0,1,0-12.027h36.939a6.013,6.013,0,1,1,0,12.027Z" transform="translate(-245.402 -219.016)" fill="#ddd"/><path d="M500.032,390.65H489.724a6.013,6.013,0,0,1,0-12.027h10.309a6.013,6.013,0,1,1,0,12.027Z" transform="translate(-228.065 -227.261)" fill="#ededed"/><path d="M576.831,391.15H528.724a6.013,6.013,0,0,1,0-12.027h48.107a6.013,6.013,0,1,1,0,12.027Z" transform="translate(-233.562 -227.332)" fill="#ddd"/><path d="M649.663,391.15H612.724a6.013,6.013,0,0,1,0-12.027h36.939a6.013,6.013,0,0,1,0,12.027Z" transform="translate(-245.402 -227.332)" fill="#ddd"/><path d="M637.71,415.636a6.02,6.02,0,0,1,6.013-6.013h10.309a6.013,6.013,0,1,1,0,12.027H643.724a6.02,6.02,0,0,1-6.013-6.013Z" transform="translate(-249.772 -231.631)" fill="#ddd"/><path d="M554.71,416.136a6.02,6.02,0,0,1,6.013-6.013h48.107a6.013,6.013,0,1,1,0,12.027H560.724a6.02,6.02,0,0,1-6.013-6.013Z" transform="translate(-238.073 -231.701)" fill="#ededed"/><path d="M483.71,416.136a6.02,6.02,0,0,1,6.013-6.013h36.939a6.013,6.013,0,0,1,0,12.027H489.724A6.02,6.02,0,0,1,483.71,416.136Z" transform="translate(-228.065 -231.701)" fill="#ddd"/><g transform="translate(60.832 73.453)"><path d="M181.675,46.326C160.734,17.185,116.5,5.365,72.992,18.1c-23,6.73-45.176,20.216-56.166,46.328C-2.82,111.1,38.429,126.011,65.4,130.762a145.865,145.865,0,0,1,36.551,11.411c20.195,9.453,55.941,17.83,82.9-21.547C204.384,92.086,195.623,65.736,181.675,46.326Z" transform="translate(-11.697 -13.011)" fill="#bec3c7" opacity="0"/><path d="M117.683,241.813a5.392,5.392,0,0,0-.352-1.349.611.611,0,0,0-.311-.382.64.64,0,0,0-.308,0l-1.582.242a.606.606,0,0,0-.361.14c-.206.217,0,.566-.009.864a.813.813,0,0,1-.63.7,2.379,2.379,0,0,1-1-.012l-2.212-.344a3.646,3.646,0,0,0,1.673-1.117c.291-.345.446-.989.025-1.152a1.031,1.031,0,0,0-.384-.031c-1,.008-1.791-.829-2.729-1.181a3.017,3.017,0,0,0-3.4,1.012l1.178.057a.523.523,0,0,1,.314.084c.258.212-.063.62-.026.952.047.432.62.524,1.052.567s.98.395.772.776c-2.171.748-4.381-1.462-6.661-1.19a13.521,13.521,0,0,0-1.686.438c-3.442.871-7-1.453-10.517-.961a13.355,13.355,0,0,0-2.3.605,3.1,3.1,0,0,0-1.325.691,1.062,1.062,0,0,0-.151,1.369,7.7,7.7,0,0,1-2.7-.257,1.512,1.512,0,0,1,.778,1.333,16.018,16.018,0,0,0-4.1,1.251,6.909,6.909,0,0,0,.849,1.131L79.792,247.2a1.024,1.024,0,0,1,.567,1.5c.629-.28,1.018-1,1.691-1.15a2.278,2.278,0,0,1,1.306.253,2.041,2.041,0,0,0,1.31.206c.433-.127.752-.688.477-1.045a22.382,22.382,0,0,1,5.685-.888.713.713,0,0,1,.431.082c.251.174.185.549.171.854s.224.705.5.568c-.32.278-.046.8.261,1.093s.678.7.49,1.075c-.049.1-.132.179-.18.279-.14.3.082.64.343.836a2.927,2.927,0,0,1,.763.6c.181.272.1.747-.225.785l-.922-1.171a2.4,2.4,0,0,0-.623,1.181,2.478,2.478,0,0,1,.306,3.389,8.468,8.468,0,0,1-1.533,1.174,2.107,2.107,0,0,0-1,1.575,8.184,8.184,0,0,0,.329,3.186,49.082,49.082,0,0,0,2.664,5.559c.264.471.6.988,1.138,1.069q-1.012-2.464-1.822-5.005a1.147,1.147,0,0,1,.965.314,2,2,0,0,1,.187.843,2.612,2.612,0,0,0,.333.783l3.222,5.74a2.375,2.375,0,0,0,1.084,1.179,6.129,6.129,0,0,1,1,.277c.236.139.394.386.634.517.679.37,1.623-.34,2.257.1a6.35,6.35,0,0,1,.464.472c.586.507,1.547.168,2.223.546a2.627,2.627,0,0,1,.894,1.174,3.775,3.775,0,0,0,2.773,2.28,7.737,7.737,0,0,1,1.176.041c.383.087.76.422.7.81-.105.665.223,1.394.135,2.062-.161,1.217-1.887,1.751-2.035,2.97a6.9,6.9,0,0,1-.045.8c-.078.32-.318.581-.4.9a1.708,1.708,0,0,0,.744,1.608,4.342,4.342,0,0,1,1.3,1.323,6.821,6.821,0,0,1,.229,1.953,4.675,4.675,0,0,0,2.7,3.167,2.816,2.816,0,0,1,1.052.77,4.184,4.184,0,0,1,.4,1.653c.267,1.377,1.426,2.512,1.459,3.914a8.332,8.332,0,0,1-.862,2.841,6.626,6.626,0,0,0,.541,5.5,8.806,8.806,0,0,1,.719,1.265c.313.809.211,1.728.5,2.546.381,1.081,1.428,1.974,1.328,3.116a3.789,3.789,0,0,0,2.58,1.766l1.891.526a2.43,2.43,0,0,0,1.109.129.833.833,0,0,0,.711-.755,6.91,6.91,0,0,1-2.649-1,2.357,2.357,0,0,1-1-2.477c.135-.42.421-.9.149-1.252-.156-.2-.441-.25-.616-.432a.943.943,0,0,1,.017-1.1,3.707,3.707,0,0,0,.561-1.031,1.076,1.076,0,0,0-.5-1.119,2.675,2.675,0,0,0,.936-.6.913.913,0,0,0,.166-1.034,1.8,1.8,0,0,0,1.632-.331,1.461,1.461,0,0,0,.162-1.324,5.654,5.654,0,0,1-.327-1.345,24.522,24.522,0,0,0,3.976-.135,2.578,2.578,0,0,0-1.209-1.514,2.1,2.1,0,0,0,1.331-1.392,3.583,3.583,0,0,0,.024-1.8.965.965,0,0,1-.018-.471.918.918,0,0,1,.473-.457l2.966-1.7a1.728,1.728,0,0,0,.474-.35,1.409,1.409,0,0,0,.106-1.368,6.873,6.873,0,0,1-.475-1.353c-.183-1.422,1.339-2.442,1.852-3.781a5.7,5.7,0,0,0,.282-1.658,1.968,1.968,0,0,0-.418-1.691c-.444-.372-1.137-.289-1.6-.636-.426-.318-.572-.934-1.038-1.191-.422-.233-.952-.085-1.421-.194-.827-.193-1.347-1.146-2.192-1.234-.477-.05-1.016.183-1.406-.094-.344-.245-.358-.736-.423-1.153a3.22,3.22,0,0,0-2.6-2.607,3.638,3.638,0,0,1-1.444-.319c-.423-.273-.617-.785-.95-1.164a3.974,3.974,0,0,0-2.17-1.013l-3.215-.756c-.571-.134-1.307-.205-1.613.295a2.311,2.311,0,0,0-.191.6,1.858,1.858,0,0,1-1.748,1.315,2.067,2.067,0,0,0-1.219-.943,7.589,7.589,0,0,1-.986-.235,1.385,1.385,0,0,1-.6-1.921,1.724,1.724,0,0,0-.295-2.074,2.8,2.8,0,0,0-2.071-.56c-.192-.419.129-.892.475-1.2s.766-.6.842-1.059c.119-.715-.794-1.259-1.487-1.045a2.579,2.579,0,0,0-1.428,1.55,4.564,4.564,0,0,1-.575,1.1,1.13,1.13,0,0,1-1.094.448c-.571-.146-.791-.824-.917-1.4a9.1,9.1,0,0,1-.3-2.344,3.065,3.065,0,0,1,.884-2.134c.949-.871,2.4-.785,3.684-.646a.936.936,0,0,1,.1-1.236,1.4,1.4,0,0,1,1.273-.313,1.755,1.755,0,0,1,.987.59,9.264,9.264,0,0,1,.742,1.546c.275.5.893.933,1.4.663a1.179,1.179,0,0,0,.4-1.323,4.974,4.974,0,0,1-.3-1.447c.075-.942,1.052-1.51,1.914-1.9s1.849-.91,1.986-1.845a1.682,1.682,0,0,1,.1-.536,1.052,1.052,0,0,1,.386-.363A32.621,32.621,0,0,1,121.6,254.6c.15-.047.167.005.32-.032.213-.123.072-.464-.133-.6s-.478-.243-.53-.484c-.038-.177.066-.351.093-.53a.662.662,0,0,0-.869-.671c-.231-.306.226-.661.6-.763a16.175,16.175,0,0,1,3.4-.555.612.612,0,0,1,.387.066.462.462,0,0,1,.032.631,3.722,3.722,0,0,1-.52.472,1.419,1.419,0,0,0-.368,1.428,3.236,3.236,0,0,0,1.917.512c.664-.108,1.254-.854.942-1.45-.291-.555-1.165-.681-1.315-1.289-.176-.713.833-1.346.606-2.044-.1-.306-.4-.486-.638-.706a1.916,1.916,0,0,1-.419-2.125,2.418,2.418,0,0,1-2.12-.664c-.507-.512-.912-1.319-1.632-1.3-.661.021-1.23.792-1.848.557-.152-.058-.312-.176-.46-.107a.38.38,0,0,0-.171.285c-.157.751.113,1.606-.3,2.255-.445.706-1.475.8-2.015,1.441-.293.346-.407.811-.676,1.176s-.841.6-1.164.279a1.6,1.6,0,0,0-.436-1.952,4.281,4.281,0,0,0-.963-.468,5.71,5.71,0,0,1-1.076-.6,1.059,1.059,0,0,1-.395-.423.963.963,0,0,1,.027-.668,2.732,2.732,0,0,1,2.175-1.8c.43-.059.931-.038,1.216-.366.151-.174.23-.436.449-.506a.662.662,0,0,1,.414.051l1.607.565a1.128,1.128,0,0,0,.572.095.388.388,0,0,0,.335-.408c-.051-.267-.462-.395-.424-.664a.443.443,0,0,1,.134-.226,5.744,5.744,0,0,1,4.556-1.8c.2.333-.118.727-.385,1.012s-.481.792-.159,1.011a.884.884,0,0,0,.428.1,3.737,3.737,0,0,1,1.139.345q.833.362,1.634.793a2.071,2.071,0,0,1,.041-1.052.712.712,0,0,1,.844-.459c.319.123.483.546.823.585.454.052.633-.619.443-1.034s-.565-.763-.6-1.219c-.021-.307.1-.688-.15-.874a.668.668,0,0,0-.29-.1l-6.129-1.128c-.364-.067-.89-.016-.906.354-.009.206.175.411.094.6s-.373.184-.582.256a.8.8,0,0,0-.455.836,2.326,2.326,0,0,0,.384.942C118.685,242.01,118.082,241.98,117.683,241.813Z" transform="translate(-69.114 -202.733)" fill="#c9d0d8"/><path d="M277.792,228.51a1.985,1.985,0,0,0-2.18.653.437.437,0,0,0-.1.46c.121.206.43.125.657.051a1.654,1.654,0,0,1,1.038-.025c.214.073.4.2.619.274a.624.624,0,0,0,.636-.093.828.828,0,0,0,.157-.594.478.478,0,0,0-.122-.393.625.625,0,0,0-.282-.083.97.97,0,0,1-.568-.332" transform="translate(-234.113 -194.632)" fill="#bec3c7"/><path d="M301.474,225.123a.5.5,0,0,0-.488.711,2.047,2.047,0,0,0,.816.053.7.7,0,0,0,.57-.523,1.313,1.313,0,0,1-.93-.178" transform="translate(-255.585 -191.861)" fill="#bec3c7"/><path d="M340.37,214.976a9.384,9.384,0,0,0-2.092.711,1.572,1.572,0,0,1,1,1.579.821.821,0,0,0,.009.39c.077.186.3.256.5.3a3.265,3.265,0,0,0,1.086.139,1.107,1.107,0,0,0,.9-.549,3.9,3.9,0,0,1,.187-.442c.469-.715,1.863.149,2.367-.541.177-.243.161-.61.393-.8a.882.882,0,0,1,.4-.154,28.339,28.339,0,0,1,3.065-.437c.487-.042,1.123-.217,1.127-.707a8.491,8.491,0,0,0-5.417.729c-.6.3-1.4.939-1.984.538-.218-.15-.207-.554-.507-.723A1.528,1.528,0,0,0,340.37,214.976Z" transform="translate(-287.066 -182.742)" fill="#bec3c8"/><path d="M388.282,215.606l.862.166a1.117,1.117,0,0,0-1.162,1.211,9.2,9.2,0,0,0,2.538.043c.85.036,1.84.643,1.695,1.482-.044.254-.19.507-.114.753a2.8,2.8,0,0,0,.291.453,1.015,1.015,0,0,1-.19,1.049c-.226.3-.529.54-.727.86a3.271,3.271,0,0,0,.081,2.709,2.389,2.389,0,0,0,.459.917,2.416,2.416,0,0,0,1.778.512,1.57,1.57,0,0,0,1.283-.374c.381-.467.115-1.2.366-1.744a1.944,1.944,0,0,1,1.335-.863,19.986,19.986,0,0,0,2.858-.933c1.132-.521,2.19-1.332,3.434-1.4a4.717,4.717,0,0,0,1.043-.073.793.793,0,0,0,.63-.735c-.022-.3-.274-.517-.471-.741s-.352-.57-.171-.807l3.261-.609c-.231-.63-.411-1.46.12-1.87.192-.148.448-.207.611-.386a.791.791,0,0,0-.183-1.089,2.1,2.1,0,0,0-1.166-.354,31.291,31.291,0,0,0-4.3.038l-8.4.461a6.136,6.136,0,0,0-1.732.176,8,8,0,0,1-1.25.567A8.05,8.05,0,0,0,388.282,215.606Z" transform="translate(-328.972 -182.248)" fill="#c9d0d8"/><path d="M486.512,265.8a.346.346,0,0,0-.251.057.316.316,0,0,0-.082.194,1.277,1.277,0,0,0,.186.915.9.9,0,0,0,.82.393c.388-.049.674-.381,1.031-.542.55-.249,2.886-.637,1.27-1.51-.557-.3-.917-.035-1.355.163A3.085,3.085,0,0,1,486.512,265.8Z" transform="translate(-411.759 -225.633)" fill="#bec3c7"/><path d="M576,219.618a.923.923,0,0,0-.449.391.394.394,0,0,0,.148.523.587.587,0,0,0,.22.035l.767.023c.326.01.733.079.82.393.065.233-.08.533.1.7a.494.494,0,0,0,.261.1,1.779,1.779,0,0,0,.773.025c.558-.15.265-.49.441-.794.269-.464.222-.183.7-.449.35-.2.8-.553.51-1.054C579.77,218.642,576.745,219.244,576,219.618Z" transform="translate(-487.09 -186.753)" fill="#bec3c7"/><path d="M656.781,219.346l-.445.059a17.948,17.948,0,0,0-2.982.571,4.961,4.961,0,0,0,1.306.32,4.011,4.011,0,0,1,.732.1c.427.127.858.456,1.271.287.256-.1.339-.371.551-.512.147-.1.7-.255.764-.354C658.479,219.027,657.167,219.295,656.781,219.346Z" transform="translate(-552.735 -186.919)" fill="#bec3c7"/><path d="M676.668,230.491a8.354,8.354,0,0,0-1.644,1.2,1,1,0,0,0-.4.728c.025.381.431.6.783.751l1.424.6c.173-.243.015-.58-.164-.819s-.391-.516-.312-.8c.09-.329.491-.441.827-.5.547-.092,2.024-.085,1.846-.967C678.815,229.65,677.217,230.184,676.668,230.491Z" transform="translate(-570.665 -196.04)" fill="#bec3c7"/><path d="M685.338,575.824a1.359,1.359,0,0,0,.086,1.2,1.213,1.213,0,0,0,1.245.43,2.244,2.244,0,0,0,1.156-.743,3.989,3.989,0,0,0,.665-1.02,7.966,7.966,0,0,0,.493-1.8l.442-2.322c.1-.519.095-2.109-.859-1.591a13.587,13.587,0,0,0-1.137,1.576,5.1,5.1,0,0,0-.816,1.818C686.29,574.233,685.638,574.955,685.338,575.824Z" transform="translate(-579.622 -482.548)" fill="#bec3c7"/><path d="M999.7,681.278a7,7,0,0,1-.906-.431,7.644,7.644,0,0,0-.459,2.5l2.135-1.208c.321-.182.685-.434.678-.8a.253.253,0,0,0-.118-.231.288.288,0,0,0-.15-.018,3.613,3.613,0,0,0-.9.29,1.1,1.1,0,0,1-.922,0" transform="translate(-843.619 -576.123)" fill="#bec3c7"/><path d="M1060.272,684.158a4.613,4.613,0,0,0-.685.246,9.792,9.792,0,0,0-1.264,1.051,5.018,5.018,0,0,1-1.428.654.342.342,0,0,0,.08.5.989.989,0,0,0,.564.127,2.977,2.977,0,0,0,1.518-.234,4.8,4.8,0,0,0,.714-.567,7.576,7.576,0,0,1,1.8-1.017,2.064,2.064,0,0,0,.627-.375c.4-.391.424-.993-.147-1.126C1061.586,683.315,1060.711,684.016,1060.272,684.158Z" transform="translate(-892.927 -578.285)" fill="#bec3c7"/><path d="M1100.454,659.594a1.782,1.782,0,0,0-.545-1.459,2.775,2.775,0,0,1-.325,1.555c-.215.317-.553.531-.789.832a.81.81,0,0,0-.064,1.044,1.037,1.037,0,0,0,.615.212,1.855,1.855,0,0,0,1.575-.3c.211-.217.313-.539.571-.7a.693.693,0,0,0,.25-.179c.106-.169-.063-.391-.253-.452s-.4-.032-.59-.09-.366-.272-.268-.446" transform="translate(-928.133 -556.972)" fill="#bec3c7"/><path d="M1007.741,531.8a2.479,2.479,0,0,1-.884.052,3.2,3.2,0,0,1-1.268-.763,5.6,5.6,0,0,0-3.269-1.142,18.949,18.949,0,0,1-3.219.068,1.27,1.27,0,0,0,.748.843c.351.171.738.257,1.09.425a2.6,2.6,0,0,1,1.261,1.311,3.7,3.7,0,0,0,.357.785,1.81,1.81,0,0,0,1.6.538,5.21,5.21,0,0,1,2.279.015,5.854,5.854,0,0,1,1.391,1.067,1.565,1.565,0,0,0,1.62.379,2.677,2.677,0,0,1-1.853-2.576c.513.047,1.99.029,1.91-.843C1009.443,531.221,1008.182,531.721,1007.741,531.8Z" transform="translate(-844.265 -448.885)" fill="#bec3c7"/><path d="M929.061,566.5c.091-.5.589-.94.434-1.424a.876.876,0,0,0-.846-.508c-.351-.008-.7.1-1.047.106a5.107,5.107,0,0,0-.685.01c-.7.115-1.126.845-1.782,1.1a10.845,10.845,0,0,1-1.263.237c-.943.248-1.539,1.138-2.2,1.856a7.844,7.844,0,0,1-3.981,2.321,3.633,3.633,0,0,0-1.538.551,3.11,3.11,0,0,0-.828,1.968,32.507,32.507,0,0,1-1.583,5.81l2.238.286a3.04,3.04,0,0,0,1.276-.019,3.7,3.7,0,0,0,.839-.447,8.377,8.377,0,0,1,3.274-1.182,3.473,3.473,0,0,1,1.75.122,1.628,1.628,0,0,1,1.068,1.3,1.374,1.374,0,0,1,1.374.334,2.388,2.388,0,0,1,.656,1.31c.059.306.118.673.4.8.232.1.5-.008.751-.028.86-.069,1.574.934,2.42.762.907-.185,1.129-1.544,2.014-1.816.508-.156,1.221.034,1.464-.439.214-.417-.214-.9-.169-1.364.054-.574.732-.818,1.254-1.063a3.911,3.911,0,0,0,1.783-5.056c-.517-1.059-1.534-1.893-1.722-3.056-.145-.9.208-1.939-.362-2.644-.29-.358-.782-.556-.955-.984a4.823,4.823,0,0,1-.124-.859c-.058-.284-.307-.582-.588-.508-.815.214-1.075,2.732-1.512,3.344A1.012,1.012,0,0,1,929.061,566.5Z" transform="translate(-772.294 -477.575)" fill="#bec3c7"/><path d="M909.091,547.3a1.314,1.314,0,0,0-.85-.043c-.267.112-.423.5-.209.7a28.776,28.776,0,0,1,5.024.1c1.915.262,3.81.912,5.733.721a29.158,29.158,0,0,0-3.344-.776l-1.883-.359a14.563,14.563,0,0,0-1.529-.236A13.926,13.926,0,0,1,909.091,547.3Z" transform="translate(-767.393 -463.437)" fill="#bec3c7"/><path d="M917.391,499.749c-.139-.012-.311-.022-.384.1s.01.265-.027.393c-.051.175-.28.22-.461.2a.882.882,0,0,0-.536.006.454.454,0,0,0-.176.516,1.326,1.326,0,0,0,.31.494,5.038,5.038,0,0,0,.8.807c.576.425,1.357.63,1.719,1.247a.825.825,0,0,0,.23.309.638.638,0,0,0,.589-.059l.657-.3a.747.747,0,0,0,.307-.209.676.676,0,0,0-.068-.713,1.223,1.223,0,0,1-.26-.7c.048-.449.625-.62.862-1s.083-.886.111-1.34c.032-.531.366-1.222-.171-1.619-.456-.337-.892-.026-1.22.347C918.987,499.005,918.661,499.856,917.391,499.749Z" transform="translate(-774.014 -421.72)" fill="#bec3c7"/><path d="M950.816,451.7c.224.43.692.686.937,1.1.265.454.235,1.04.523,1.479s.889.691,1.055,1.2c.181.56-.23,1.241.1,1.73a.726.726,0,0,0,1.066.1.781.781,0,0,0-.032-1.09c-.194-.177-.472-.253-.633-.459a.968.968,0,0,1-.164-.4,2.616,2.616,0,0,1,.041-1.253.558.558,0,0,0,.032-.328c-.073-.212-.359-.227-.56-.325-.456-.223-.446-.867-.366-1.369-.053.334-1.243-.234-1.367-.423-.248-.376-.113-1.1-.162-1.516A1.18,1.18,0,0,0,950.816,451.7Z" transform="translate(-803.45 -381.601)" fill="#bec3c7"/><path d="M869.216,500.029c-.22-.246-.55-.5-.845-.355a.535.535,0,0,0-.2.659,1.452,1.452,0,0,0,.479.571,16.725,16.725,0,0,1,1.809,1.551c.958,1.053,1.465,2.473,2.507,3.443a1.406,1.406,0,0,0,.789.427.614.614,0,0,0,.679-.469.894.894,0,0,0-.315-.658c-.4-.44-.848-.845-1.23-1.305a1.1,1.1,0,0,1-.314-.656c0-.248.224-.507.464-.446-.292-.075-.508-.561-.937-.652-.358-.076-.445.145-.871-.037C870.422,501.754,869.785,500.666,869.216,500.029Z" transform="translate(-733.835 -423.323)" fill="#bec3c7"/><path d="M973.626,347.987a6.673,6.673,0,0,1-.686-.245c-.6-.181-1.4.262-1.321.887.053.415.439.695.653,1.055a2.344,2.344,0,0,1,.066,1.809,1.411,1.411,0,0,1-.228.515,1.738,1.738,0,0,1-.54.389,7.232,7.232,0,0,0-2.115,1.8.522.522,0,0,0-.128.241c-.029.211.183.365.3.54.266.391.074.917.1,1.389a.391.391,0,0,0,.165.344c.16.082.351-.057.438-.214.288-.523.071-1.362.613-1.614.1-.048.227-.068.295-.158.109-.143,0-.354.059-.525.083-.256.433-.268.7-.256a3.986,3.986,0,0,0,1.368-.182.91.91,0,0,0,.453-.262.985.985,0,0,0,.115-.746,10.107,10.107,0,0,0-1.195-3.646,2.173,2.173,0,0,0,1.4-.135c.23-.139.505-.554.391-.836C974.356,347.685,974.031,348.061,973.626,347.987Z" transform="translate(-819.157 -295.218)" fill="#bec3c7"/><path d="M502.818,376.439a1.831,1.831,0,0,1,.013.921.63.63,0,0,1-.712.449c-.231-.07-.364-.3-.528-.479-.911-.983-2.966-.414-3.528-1.63-.23-.5-.073-1.091-.23-1.615a1.438,1.438,0,0,0-1.456-.989,2.992,2.992,0,0,0-.838.25,21.131,21.131,0,0,1-5.551,1.388,4.563,4.563,0,0,0-1.067.194,3.378,3.378,0,0,0-1.7,1.749,13.515,13.515,0,0,1-1.171,2.2,9.76,9.76,0,0,1-1.987,1.7,2.028,2.028,0,0,0-.656.687,2.148,2.148,0,0,0-.131,1.021l.143,4.209a3.8,3.8,0,0,0,.284,1.587,10.415,10.415,0,0,0,1.315,1.536,3.008,3.008,0,0,1,.624,1.921c-.009.279-.037.608.18.783a.8.8,0,0,0,.444.128l5.694.466a3.925,3.925,0,0,1,2.766.98c.309.36.557.878,1.029.917a3.818,3.818,0,0,0,.6-.083,1.481,1.481,0,0,1,1.245.776,3.442,3.442,0,0,1,.553,2.208c-.047.488-.2.962-.23,1.451-.124,1.861,1.454,3.478,1.484,5.343a6.662,6.662,0,0,1-1.01,3.094c.819,1.241.148,2.894.475,4.345.309,1.377,1.457,2.455,1.743,3.836.131.633.139,1.411.7,1.737a1.586,1.586,0,0,0,.788.158,10.387,10.387,0,0,0,4.73-1.077,2.474,2.474,0,0,0,1.525-1.614c.1-.613-.214-1.3.1-1.834.373-.63,1.329-.58,1.878-1.064.89-.785.2-2.283.557-3.414.324-1.017,1.441-1.557,1.994-2.47a4.389,4.389,0,0,0,.463-1.256,17.925,17.925,0,0,0,.471-3.2,19.228,19.228,0,0,1,.145-1.962c.6-3.707,4.261-6.189,5.451-9.75.114-.34.167-.793-.136-.985a.867.867,0,0,0-.576-.06l-2.625.331a1.807,1.807,0,0,1-.971-.056.623.623,0,0,1-.355-.8c.446-.807-.471-1.828-.879-2.656a39.189,39.189,0,0,0-3.9-6.328.643.643,0,0,1-.171-.371l.745.025a3.055,3.055,0,0,0-1.543-2.22,3.841,3.841,0,0,0-1.568-.093A22.913,22.913,0,0,1,502.818,376.439Z" transform="translate(-409.325 -316.628)" fill="#bec3c7"/><path d="M533.446,231.891a2.544,2.544,0,0,0,1.409.937c1.01.129,1.735-.915,2.2-1.822a.89.89,0,0,0,.929.823,1.834,1.834,0,0,0,.7-.273,13.763,13.763,0,0,1,6.52-1.685.7.7,0,0,1,.538-.774c.463-.092.881.309,1.1.725a4,4,0,0,0,.718,1.21c.355.312,1.043.3,1.183-.153.135-.433-.316-.8-.691-1.058s-.77-.728-.518-1.1a33.68,33.68,0,0,1,5.8-.934,2.43,2.43,0,0,0,.977-.168.759.759,0,0,0,.456-.8,2.212,2.212,0,0,1-2.308-.871c2.719-.224,5.612-.416,8.021.864.289.621-1.185,1.137-.79,1.7a.714.714,0,0,0,.6.2,29.571,29.571,0,0,0,5.015-.191,6.714,6.714,0,0,1,1.824-.148c1.012.125,1.877.8,2.873,1.02a1.537,1.537,0,0,0,1.2-.143.762.762,0,0,0,.208-1.079c.937-.919,2.493-.691,3.729-.251a14.832,14.832,0,0,0,3.717,1.247c.939.07,1.89-.182,2.817-.022a17.543,17.543,0,0,1,1.695.519,12.953,12.953,0,0,0,3.335.252,23.369,23.369,0,0,1,8.328,1.655,2.476,2.476,0,0,1,.926.547.908.908,0,0,1,.207,1l-2.74-.4c.258.508.926.595,1.468.77s1.1.774.779,1.242c-.588-.187-1.12.4-1.417.941s-.659,1.188-1.275,1.221c-.551.029-1.218-.44-1.578-.021a10.769,10.769,0,0,1,1.268,2.027,2.355,2.355,0,0,1,.128,2.338.606.606,0,0,1-.324.251c-.392.1-.647-.38-.928-.671a3.368,3.368,0,0,0-1.37-.642c-.48-.172-.985-.51-1.023-1.018a2.036,2.036,0,0,1,.267-.9,3.48,3.48,0,0,0,.264-1.559,1.772,1.772,0,0,0-.455-1.175.912.912,0,0,0-1.171-.12c-.154.128-.278.333-.478.341-.354.014-.626-.6-.911-.393a.968.968,0,0,1-.131.647c-.85.739-2.156.427-3.252.688a6.1,6.1,0,0,0-1.484.648.955.955,0,0,0-.424.356.656.656,0,0,0,.255.783,2.024,2.024,0,0,0,.841.287,8.275,8.275,0,0,1,3.746,1.5,3.678,3.678,0,0,1,1.413,3.595L585,241.327q.15,1.585.17,3.18a1.43,1.43,0,0,1-.083.612c-.188.415-.7.554-1.143.646a.9.9,0,0,0-.687,1.147,3.741,3.741,0,0,0,.916,1.321,2.536,2.536,0,0,1,.765,1.4c.047.538-.359,1.145-.9,1.108a1.184,1.184,0,0,1-.886-.765,4.86,4.86,0,0,0-.54-1.1c-.793-.953-2.573-.545-3.283-1.561a1.606,1.606,0,0,0-.332,1.528.842.842,0,0,1,1.031.286,7.046,7.046,0,0,1,.56,1.023c.263.455.682.859.718,1.384a4.5,4.5,0,0,0,.01.6,2.4,2.4,0,0,0,.52.812,2.33,2.33,0,0,1,.133,2.169,6.69,6.69,0,0,1-1.278,1.856,22.388,22.388,0,0,1-2.784,2.8,2.927,2.927,0,0,0-.79.8.862.862,0,0,0,.089,1.041c-.2.01-.562.109-.763.119a17.728,17.728,0,0,1-.046-2.427c-.794-.381-1.649.64-1.546,1.514a6.346,6.346,0,0,0,1.186,2.333,2.757,2.757,0,0,1,.464,1.833,1.348,1.348,0,0,1-1.318,1.164c-1.021-.089-1.447-1.554-2.458-1.722a.413.413,0,0,0-.266.026c-.15.082-.176.283-.185.454a5.635,5.635,0,0,0,.25,2.484c.479,1.131,1.716,2.082,1.457,3.283a5.119,5.119,0,0,1-2.456-3.725,26.061,26.061,0,0,0-.977-4.512c-.449.576-1.394.1-1.8-.5-.389-.573-.629-1.235-1.006-1.816a2.233,2.233,0,0,0-1.648-1.132,2.946,2.946,0,0,0-1.908.935,4.448,4.448,0,0,0-1.188,1.323,5.972,5.972,0,0,0-.3,2.564,3.914,3.914,0,0,1-.859,2.617,1.9,1.9,0,0,1-2.527.307,2.85,2.85,0,0,1-.706-1.271,62.188,62.188,0,0,1-1.911-6.823c-.119.527-.581,1.206-1.023.9a.917.917,0,0,1-.236-.3,6.811,6.811,0,0,0-3.894-2.738c-1.543-.5-3.166-.737-4.692-1.289a11.88,11.88,0,0,1-2.434-1.212,1.914,1.914,0,0,0-.117,1.958,1.56,1.56,0,0,0,1.76.737c.339-.108.625-.343.961-.46a.75.75,0,0,1,.934.265c.141.31-.072.685.034,1.009.161.493.9.531,1.164.98a.9.9,0,0,1-.242,1.046,4.378,4.378,0,0,1-.982.6,19.418,19.418,0,0,0-2.828,2.455,3.413,3.413,0,0,1-3.444.88c.272-1.375-1.367-2.385-1.668-3.754-.1-.451-.048-.929-.189-1.368a4.463,4.463,0,0,0-1.232-1.555,6.1,6.1,0,0,1-1.674-4.439,6.233,6.233,0,0,0,0-1.692,1.268,1.268,0,0,0-1.151-1.06c-1.292.057-2.92.153-3.6-.948a1.018,1.018,0,0,1,0-1.27,1.229,1.229,0,0,1,.935-.161l2.912.286a3.218,3.218,0,0,0,2-.234c.584-.356.838-1.3.3-1.72-.4-.306-1.1-.289-1.219-.776-.1-.405.353-.865.11-1.2-.174-.243-.564-.175-.8.007a5.13,5.13,0,0,1-.673.586,2.048,2.048,0,0,1-1.52-.145c-.5-.156-1.17-.17-1.412.295-.271.519.24,1.2-.029,1.72-.356.688-1.561.3-2.06.888-.573.679.39,1.691.2,2.559a1.593,1.593,0,0,1-1.569-.088,1.524,1.524,0,0,1-.659-1.419c.048-.39.251-.789.115-1.157a1.357,1.357,0,0,0-.688-.629l-2.83-1.564a1.28,1.28,0,0,0,.485,1.458,5.028,5.028,0,0,1,1.208,1.123,1.475,1.475,0,0,1-.555,1.944.34.34,0,0,1-.281.049.391.391,0,0,1-.182-.245,6.025,6.025,0,0,0-2.447-3.2,2.9,2.9,0,0,0-3.706.594c-.187.267-.312.571-.475.854a4.936,4.936,0,0,1-4.446,2.164.882.882,0,0,1-.485-.114c-.28-.193-.267-.6-.224-.94l.182-1.431a1.137,1.137,0,0,1,.317-.784c.32-.253.783-.093,1.191-.1a1.51,1.51,0,0,0,1.37-1.057,1.7,1.7,0,0,0-.474-1.692c-.187-.176-.438-.4-.339-.633a.523.523,0,0,1,.367-.247c.733-.213,1.508-.269,2.229-.52a2.314,2.314,0,0,0,1.591-1.509c.052-.228.076-.5.281-.617a.843.843,0,0,1,.325-.066,1.58,1.58,0,0,0,1.355-1.647,1.031,1.031,0,0,1,1.164.193,3.275,3.275,0,0,0,1.036.707c.758.206,1.491-.465,2.276-.468a2.933,2.933,0,0,0,.983,0c.315-.114.5-.427.745-.659s.666-.373.889-.123l-.19-1.408a2.769,2.769,0,0,0,2.253-.407l-2.458-.83a.533.533,0,0,1-.23-.123c-.179-.192,0-.492.144-.711.348-.523.406-1.385-.166-1.645a1.4,1.4,0,0,0-1.213.244l-1.794,1c-.057.341.36.534.618.764a1.037,1.037,0,0,1-.676,1.811,1.292,1.292,0,0,1,.231,1.1l-1.207.087a.523.523,0,0,1-.391-.076c-.129-.115-.112-.316-.141-.486a1.054,1.054,0,0,0-.884-.772,3.11,3.11,0,0,0-1.236.114.738.738,0,0,1-.531-.012.531.531,0,0,1-.21-.265,1.362,1.362,0,0,1,.274-1.308,7.266,7.266,0,0,1,1.029-.946A6,6,0,0,0,524.633,231c.664-.278,1.352-.657,2.016-.935a6.171,6.171,0,0,1,3.317-.643l2.25.043a5.4,5.4,0,0,1,1.966.283,1.833,1.833,0,0,1,1.2,1.468.45.45,0,0,1-.144.412.531.531,0,0,1-.284.064C534.332,231.714,534.067,231.869,533.446,231.891Z" transform="translate(-435.329 -192.415)" fill="#bec3c7"/><path d="M512.94,305.718a.658.658,0,0,0,.18-.662,1.231,1.231,0,0,0-1.275.241,2.154,2.154,0,0,0-.342.452,2.014,2.014,0,0,0-.386,1.6.454.454,0,0,0,.208.284.545.545,0,0,0,.242.038,8.1,8.1,0,0,0,.974-.06c.2-.024.429-.08.506-.265.1-.243-.143-.518-.072-.771a.841.841,0,0,1,.208-.3.393.393,0,0,0,.123-.33c-.029-.119-.21-.186-.276-.083" transform="translate(-432.756 -259.191)" fill="#bec3c7"/><path d="M527.219,295.388a2.727,2.727,0,0,0-.883-.055.384.384,0,0,0-.188.043.314.314,0,0,0-.116.168.834.834,0,0,0,.486,1.022,1.043,1.043,0,0,1,.3.121c.25.194.09.59.138.9.053.351.393.646.331.995-.049.275-.343.493-.3.769s.416.375.708.4a.89.89,0,0,0,.5-.057.778.778,0,0,0,.316-.458,2.937,2.937,0,0,0,.148-1.106,1.048,1.048,0,0,0-.125-.488,2.711,2.711,0,0,0-.291-.334C527.69,296.657,528.279,295.686,527.219,295.388Z" transform="translate(-445.347 -251.05)" fill="#bec3c7"/><path d="M347.628,370.252s-42.841-24.591-61.285-19.932c0,0-39.088,4.206-43.618,13.461,0,0-12.425-38.829-16.955-40.123" transform="translate(-192.201 -274.945)" fill="rgba(103,101,141,0)" stroke="#92a7d6" stroke-miterlimit="10" stroke-width="2" opacity="0.8"/><path d="M242.726,362.389c7.183-19.155,71.9-40.382,71.9-40.382-9.189,2.33-28.28,26.921-28.28,26.921s-40.382-29.38-60.573-26.662a268.256,268.256,0,0,1,34.122,3.947c28.454,5.022,68.07,16.569,87.735,42.648" transform="translate(-192.201 -273.553)" fill="rgba(103,101,141,0)" stroke="#92a7d6" stroke-miterlimit="10" stroke-width="2" opacity="0.8"/><circle cx="1.877" cy="1.877" r="1.877" transform="translate(31.692 46.836)" fill="rgba(103,101,141,0)" stroke="#92a7d6" stroke-width="1"/><circle cx="1.877" cy="1.877" r="1.877" transform="translate(48.648 86.959)" fill="rgba(103,101,141,0)" stroke="#92a7d6" stroke-width="1"/><circle cx="1.877" cy="1.877" r="1.877" transform="translate(120.545 46.577)" fill="rgba(103,101,141,0)" stroke="#92a7d6" stroke-width="1"/><circle cx="1.877" cy="1.877" r="1.877" transform="translate(153.55 93.43)" fill="rgba(103,101,141,0)" stroke="#92a7d6" stroke-width="1"/><circle cx="1.877" cy="1.877" r="1.877" transform="translate(92.265 73.498)" fill="rgba(103,101,141,0)" stroke="#92a7d6" stroke-width="1"/></g></g></g></svg>